<svg width="448" height="192" viewBox="0 0 448 192" fill="none" xmlns="http://www.w3.org/2000/svg">
<path d="M78.8026 0.970335C77.7285 1.77396 78.2379 2.90672 78.7903 3.73209C79.9722 5.79304 81.4473 7.73936 83.1867 9.53301C88.3414 14.4204 93.0707 19.5816 97.3426 24.9808C98.6283 26.5721 100.213 28.0146 101.526 29.5923C105.384 34.1996 109.177 38.8689 112.981 43.5032C114.747 45.0775 115.806 47.0736 115.991 49.1783C114.484 47.7873 113.234 46.555 111.897 45.3809C109.891 43.6197 107.896 41.8233 105.734 40.2002C102.926 38.0685 99.9242 36.1236 97.0404 34.0149C91.8835 30.2626 86.8132 26.4521 81.6731 22.7215C79.0189 20.785 76.1533 19.0136 73.4666 17.1083C70.7799 15.2029 67.8145 12.8937 64.91 10.8554C64.5545 10.5239 64.0961 10.2724 63.5804 10.1256C63.0646 9.9789 62.5096 9.94223 61.9704 10.0191C61.4312 10.096 60.9269 10.284 60.5074 10.5642C60.088 10.8444 59.7682 11.207 59.5798 11.616C58.5713 12.7883 57.9772 14.1544 57.8592 15.5717C57.7413 16.989 58.1041 18.4054 58.9096 19.6731C60.2016 21.425 61.6851 23.0828 63.3429 24.6276C68.3366 29.4999 74.8633 33.1152 80.6312 37.3326C85.8036 41.1418 91.4831 44.4909 97.569 47.3202C98.659 47.9116 99.7019 48.5563 100.691 49.2504L100.294 49.7336C96.0416 48.3185 91.7172 47.1499 87.552 45.4356C82.0794 43.1648 76.868 40.4785 71.5183 38.0263C67.859 36.3373 64.1494 34.7131 60.3899 33.1541C59.2548 32.6726 58.0016 32.3935 56.7174 32.336C55.4331 32.2785 54.1484 32.4441 52.9526 32.8212C50.92 33.3924 50.4452 34.3807 51.361 35.9595C51.5913 36.4227 51.9255 36.8488 52.3471 37.2173C54.0143 38.5388 55.7123 39.8352 57.441 41.1063C61.5373 43.9145 66.1431 46.2149 71.1028 47.9298C76.4327 49.9701 81.9449 51.7845 87.4916 53.4012C94.4373 55.4985 101.472 57.3711 108.476 59.3492C115.958 61.4525 123.581 63.5449 129.849 67.4092C132.48 68.9425 135.355 70.1903 138.4 71.1198C140.147 71.8322 141.817 72.6553 143.397 73.5812C142.255 73.5755 141.128 73.3678 140.099 72.9727C133.224 70.6291 125.869 69.699 118.641 68.3287C113.054 67.268 107.571 65.8908 102.231 64.2077C97.2975 62.6485 92.253 61.31 87.1625 59.8887L73.1288 56.0204C71.7905 55.6066 70.3545 55.4312 68.9219 55.5068C67.4892 55.5823 66.0949 55.9068 64.8372 56.4574C62.5109 57.4753 61.8382 58.7425 63.2971 60.4586C64.1636 61.6068 65.4375 62.5259 66.9587 63.1003C70.9405 64.4839 74.8369 66.0002 78.8854 67.155C82.3113 68.1058 85.7987 68.91 89.3326 69.5642C92.1659 70.0868 94.9997 70.6094 97.8569 70.9695C101.085 71.4165 104.332 71.7187 107.523 72.2145C113.796 73.2106 120.032 74.2493 126.232 75.3312C128.956 75.6481 131.609 76.269 134.115 77.1749C132.637 77.425 131.117 77.4706 129.62 77.3101C122.303 76.4058 114.906 75.8575 107.631 74.6461C100.356 73.4338 92.4433 72.735 84.8194 71.9225C81.7644 71.6002 78.6546 71.546 75.6213 71.4689C74.4777 71.4445 73.3448 71.6493 72.3269 72.0645C71.3091 72.4798 70.4389 73.0924 69.7967 73.8452C69.4334 74.1556 69.1717 74.532 69.0347 74.9418C68.8978 75.3516 68.8897 75.7818 69.0115 76.1948C69.133 76.6079 69.3806 76.9908 69.7321 77.3093C70.0837 77.6287 70.5285 77.8731 71.0274 78.023C72.6042 78.6503 74.2544 79.1538 75.9544 79.5253C80.6027 80.3832 85.2819 81.1343 90.0007 81.6712C96.2116 82.3711 102.45 82.8917 108.71 83.2664C112.645 83.5288 116.618 83.5011 120.556 83.5964C123.742 83.6281 126.909 83.488 130.101 83.5019C136.271 83.62 142.477 83.6143 148.599 84.0567C152.171 84.1781 155.674 84.8812 158.891 86.1219C159.386 86.2645 159.82 86.5187 160.136 86.8535C160.453 87.1892 160.639 87.5909 160.673 88.0088C160.806 88.7062 161.138 89.3702 161.645 89.9494C162.151 90.5287 162.818 91.0069 163.594 91.3491C164.398 91.7939 165.173 92.2526 166.015 92.6485C168.584 94.014 171.25 95.2613 173.999 96.3847C181.409 99.0496 188.827 101.53 196.378 104.111C196.378 104.111 196.427 104.343 196.459 104.552C192.998 103.746 189.592 102.796 186.256 101.706C180.014 99.334 173.389 97.6622 166.571 96.74C163.424 96.4434 160.256 96.2984 157.087 96.3073C156.475 96.2764 155.869 96.4108 155.365 96.6878C154.859 96.9656 154.488 97.3697 154.308 97.8357C154.051 98.1893 153.757 98.5266 153.431 98.8427L140.258 91.9422C137.341 90.281 134.131 88.9701 130.733 88.052C128.207 87.4377 126.334 87.7791 125.437 89.3384C124.294 91.3352 123.197 92.8579 125.64 94.7187C129.228 97.496 133.217 99.9254 137.525 101.956C142.09 104.059 146.607 106.247 151.156 108.403C152.755 109.162 154.321 109.951 155.967 110.626C159.571 112.131 163.203 113.593 166.864 115.01C168.96 115.824 171.111 116.443 173.212 117.239C175.329 117.767 177.336 118.544 179.165 119.542C173.935 118.769 168.806 117.618 163.84 116.104C161.179 115.149 158.471 114.278 155.81 113.324C154.854 112.999 153.963 112.538 153.023 112.161C150.671 111.189 148.265 110.319 145.966 109.245C142.47 107.636 139.117 105.774 135.556 104.227C132.452 102.875 129.255 101.841 125.976 100.605L107.861 93.851C105.88 93.2612 103.992 92.4888 102.234 91.5519C101.021 90.7315 99.6189 90.1075 98.1048 89.714C95.9227 89.1999 93.8114 88.9221 91.7048 88.3852C87.7378 87.4312 84.0556 88.6997 80.262 89.1502C80.0093 89.2023 79.7742 89.2985 79.5736 89.4313C79.0205 89.7319 78.5775 90.1441 78.2896 90.6256C78.0018 91.1071 77.8794 91.6399 77.9348 92.1711C77.9506 92.6689 78.1828 93.1463 78.592 93.5227C79.0011 93.8991 79.5617 94.1516 80.1784 94.2364C81.6393 94.5052 83.1002 94.7749 84.5747 95.1578C88.4484 95.8723 92.3853 96.4507 96.2178 97.3054C103.966 99.5417 111.53 102.164 118.864 105.156C124.363 107.097 129.733 109.237 135.164 111.334C136.402 111.804 137.621 112.344 138.846 112.866C137.702 112.934 136.553 112.842 135.45 112.592C134.609 112.38 133.728 112.286 132.847 112.316C129.778 112.568 126.676 112.306 123.741 111.546C119.599 110.751 115.551 109.675 111.64 108.331C107.382 106.933 103.365 105.191 99.1979 103.643C95.9145 102.425 92.6462 101.155 89.2839 100.127C85.1794 98.8052 80.9442 97.7575 76.6218 96.9933C70.3267 95.9432 64.1943 94.2559 57.7846 93.5186C51.3749 92.7821 45.7294 91.1845 39.4618 91.1601C37.7093 91.1707 35.976 90.7951 34.2151 90.6745C31.9291 90.4423 29.6275 90.3217 27.323 90.312C26.1236 90.378 25.0058 90.8187 24.2145 91.5389C23.4231 92.2583 23.0226 93.1984 23.1007 94.1525C23.1399 95.4258 23.6321 96.6642 24.5202 97.7249C25.4082 98.7849 26.6559 99.6232 28.1185 100.142C34.3188 102.228 40.8577 103.609 47.5424 104.244C53.7323 105.015 59.9736 105.61 66.1943 106.274L82.9883 108.037C83.918 108.208 84.8699 108.384 85.8303 108.45C85.7955 108.604 85.7509 108.756 85.6968 108.907C83.7424 109.062 81.7776 109.121 79.8139 109.083C73.3902 108.714 66.9939 109.372 60.5297 108.661C54.7892 108.029 48.9948 108.222 43.0888 107.838C37.1828 107.453 32.0346 107.19 26.5052 106.634C20.2661 106.133 13.998 105.893 7.72721 105.916C6.76188 105.938 5.80363 106.054 4.87395 106.262C3.64576 106.629 2.55484 107.237 1.70323 108.031C0.851717 108.824 0.2674 109.777 0.00518609 110.799C-0.0711036 112.961 0.915129 115.062 2.7544 116.655C4.59377 118.247 7.14134 119.208 9.85639 119.332C15.0545 119.344 20.2647 119.155 25.4325 118.791C34.5027 118.163 43.5288 117.287 52.5804 116.563C56.9768 116.206 61.3747 115.922 65.7726 115.639C66.4721 115.609 67.173 115.609 67.8726 115.637L67.9332 116.149L60.008 117.729C54.5838 118.732 49.1291 119.6 43.7745 120.764C39.2546 121.785 34.8435 122.994 30.4731 124.303C24.9299 125.752 19.8355 128.119 15.5252 131.247C14.801 131.743 14.2457 132.376 13.9105 133.087C13.5753 133.798 13.4711 134.566 13.6077 135.318C13.7441 136.07 14.1169 136.782 14.6913 137.389C15.2658 137.996 16.0236 138.478 16.8944 138.791C20.1332 139.984 23.7384 140.404 27.2718 140C30.5135 139.61 33.6455 138.774 36.5284 137.533C41.0034 135.705 45.735 134.278 50.2693 132.647C58.5866 129.562 66.9364 126.446 75.1296 123.227C81.5393 120.827 88.3155 119.101 95.2866 118.096C96.1338 117.984 96.9881 117.912 97.8446 117.881L85.9554 124.018C84.3363 124.85 82.6831 125.64 81.0249 126.447L64.1489 134.725L49.2346 141.954C48.5001 142.273 47.8949 142.751 47.4896 143.334C47.0843 143.916 46.8959 144.578 46.9462 145.242C47.0446 146.744 48.4914 147.382 50.0493 147.799C53.8521 148.788 57.9298 148.896 61.8073 148.113C66.2935 147.312 70.5648 145.882 74.4216 143.891C77.7922 142.217 81.0363 140.388 84.1371 138.411C87.0385 136.461 89.7277 134.118 92.7177 132.184C96.8324 129.511 101.212 127.054 105.379 124.52C105.892 124.297 106.435 124.124 107 124.003C106.91 124.491 106.597 124.935 106.122 125.251C100.599 128.879 95.8162 133.166 91.9433 137.959C87.9391 142.824 83.4741 147.44 78.5869 151.764C77.2866 153.081 75.7822 154.262 74.1097 155.279C73.4674 155.806 73.0118 156.458 72.7887 157.169C72.7027 157.313 72.6536 157.469 72.6446 157.628C72.6355 157.787 72.6666 157.946 72.7362 158.096C72.8056 158.245 72.9121 158.382 73.0492 158.498C73.1862 158.614 73.3512 158.707 73.5342 158.772C74.8585 159.544 76.3972 160.051 78.02 160.25C79.6428 160.45 81.3021 160.335 82.8575 159.917C85.2717 159.21 87.4966 158.147 89.4155 156.785C92.5947 154.682 96.1297 152.718 97.1346 149.194C97.1756 149.053 97.361 148.975 97.4461 148.843C99.2265 146.499 100.849 144.054 102.808 141.817C107.522 136.285 113.176 131.297 119.609 126.997C122.48 125.152 125.931 123.952 129 122.31C132.459 120.535 136.592 119.781 140.678 120.179C145.85 120.521 150.981 121.245 156.12 121.859C159.977 122.31 163.787 122.92 167.638 123.315C172.052 123.777 176.496 124.059 180.918 124.41C180.18 124.654 179.398 124.798 178.601 124.837C171.831 125.332 165.056 125.77 158.316 126.326C155.86 126.539 153.424 126.877 151.023 127.337C148.563 127.774 146.285 128.467 143.882 128.951C140.814 129.611 137.953 130.772 135.482 132.36C133.011 133.948 130.983 135.93 129.528 138.176C129.044 138.928 128.706 139.736 128.526 140.569C128.258 141.469 128.379 142.416 128.872 143.255C129.363 144.093 130.198 144.774 131.239 145.188C133.244 145.91 134.725 145.07 136.24 144.033C137.346 143.234 138.607 142.583 139.975 142.106C144.124 140.757 148.336 139.512 152.548 138.266C157.171 136.893 161.849 135.567 166.471 134.193C169.281 133.358 172.022 132.36 174.872 131.625C176.681 130.989 178.659 130.717 180.631 130.832L177.24 132.061C174.631 133.008 172.028 133.938 169.408 134.92C165.504 136.389 161.78 138.207 157.758 139.357C153.737 140.507 150.091 141.653 146.231 143.13C141.774 144.913 138.136 147.766 135.829 151.284C135.192 152.219 135.008 153.307 135.31 154.343C135.566 155.198 136.05 156.001 136.729 156.695C137.407 157.39 138.265 157.961 139.244 158.37C141.576 159.653 142.177 159.672 144.447 158.365C146.298 157.297 148.02 156.111 149.864 154.986C153.618 152.673 157.601 150.532 161.219 148.047C164.906 145.338 168.805 142.816 172.891 140.497C177.172 138.058 181.809 136.042 186.701 134.492C191.816 132.95 197.121 131.796 202.405 130.636C205.035 130.137 207.697 129.742 210.377 129.454C211.162 129.36 211.955 129.314 212.749 129.317C216.37 129.462 219.955 129.943 223.435 130.75C228.349 131.656 233.335 132.316 238.27 133.151C243.204 133.987 247.544 134.862 252.171 135.715C253.963 136.046 255.738 136.522 257.5 136.958C259.789 137.701 262.16 138.274 264.581 138.673C270.199 139.245 275.051 141.642 280.485 142.608C280.485 142.608 280.485 142.608 280.578 142.847C280.353 142.907 280.121 142.951 279.887 142.979C276.437 143.048 272.998 143.082 269.561 143.19C268.052 143.246 266.582 143.568 265.094 143.553C261.907 143.522 258.736 143.197 255.569 143.262C248.849 143.254 242.141 143.699 235.517 144.591C231.628 145.209 227.705 145.784 223.755 146.131C221.299 146.372 218.922 146.979 216.749 147.919C214.711 148.748 212.69 149.599 210.697 150.513C209.68 150.936 208.741 151.468 207.904 152.093C207.312 152.529 206.876 153.083 206.643 153.697C206.408 154.312 206.384 154.965 206.573 155.589C206.761 156.213 207.156 156.786 207.715 157.249C208.275 157.711 208.978 158.048 209.755 158.222C211.953 158.724 214.222 159.005 216.509 159.06C220.128 158.978 223.699 158.38 227.053 157.295C231.856 156.103 236.606 154.772 241.236 153.214C245.231 151.842 249.43 150.883 253.731 150.361C259.549 149.613 265.436 149.253 271.329 149.285C273.005 149.297 274.674 149.252 276.355 149.247C274.592 149.938 272.738 150.474 270.829 150.843C266.397 151.881 261.967 152.752 257.588 153.855C253.652 154.873 249.722 155.948 245.909 157.267C242.095 158.585 238.702 160.222 235 161.562C231.723 162.805 228.661 164.378 225.89 166.244C225.398 166.539 224.953 166.88 224.567 167.261C224.025 167.825 223.717 168.509 223.685 169.217C223.654 169.926 223.901 170.625 224.393 171.217C225.304 172.573 226.696 172.44 228.051 172.189C231.158 171.613 234.261 171.053 237.291 170.184C241.62 169.015 245.844 167.568 250.083 166.31C253.063 165.449 256.135 164.754 259.144 163.955C262.153 163.156 265.284 162.176 268.409 161.379C273.858 159.973 279.405 158.788 284.801 157.242C292.549 154.879 300.707 153.474 308.991 153.077C312.347 153.015 315.682 153.51 318.784 154.532C323.978 156.157 329.236 157.646 334.478 159.188C334.987 159.282 335.422 159.548 335.883 159.726C334.263 159.85 332.633 159.878 331.007 159.809C322.902 160.169 314.757 159.54 306.747 161.012C303.492 161.617 300.08 161.637 296.833 162.374C287.918 164.371 279.188 166.857 270.707 169.817C269.621 170.282 268.727 170.987 268.132 171.846C267.865 172.159 267.688 172.515 267.616 172.889C267.544 173.263 267.579 173.645 267.717 174.007C267.856 174.369 268.094 174.702 268.416 174.981C268.738 175.259 269.133 175.478 269.575 175.619C271.361 176.42 273.437 176.718 275.463 176.463C280.555 175.641 285.723 175.035 290.798 174.19C298.427 172.907 305.995 171.428 313.575 170.155C314.121 170.101 314.672 170.085 315.221 170.106C311.377 172.254 307.453 174.109 303.496 175.92C301.313 176.927 298.938 177.713 296.84 178.829C295.374 179.7 294.035 180.697 292.847 181.803C290.392 183.732 288.563 186.106 287.517 188.722C286.821 190.708 287.584 191.851 290.094 191.961C292.604 192.072 295.472 191.915 298.173 191.856C298.416 191.901 298.67 191.67 298.917 191.623C302.399 190.775 305.639 189.394 308.453 187.556C314.445 184.21 320.153 180.551 326.02 177.069C328.036 175.808 330.163 174.662 332.385 173.643C336.427 171.939 340.595 170.445 344.848 168.818C344.884 168.694 344.795 168.363 344.779 167.933C350.015 166.618 355.274 165.621 360.77 167.173C359.732 167.48 358.674 167.743 357.601 167.961C352.849 169.459 348.148 171.022 343.463 172.607C342.231 173.012 341.07 173.548 340.014 174.196C339.543 174.432 339.154 174.759 338.884 175.146C338.613 175.533 338.469 175.968 338.466 176.411C338.462 176.854 338.598 177.29 338.862 177.681C339.127 178.07 339.51 178.401 339.977 178.642C340.651 179.092 341.412 179.452 342.233 179.707C343.456 180.111 344.72 180.431 346.012 180.664C347.189 180.927 348.414 181.027 349.634 180.961C353.421 180.563 357.099 179.675 360.525 178.331C366.116 176.067 371.995 174.278 378.059 172.995C378.755 172.921 379.4 172.669 379.901 172.278C380.87 171.195 381.951 171.487 383.188 171.808C386.63 172.721 390.088 173.582 393.54 174.46C395.825 175.011 397.939 175.938 399.744 177.181C393.932 177.277 388.527 177.653 383.136 178.143C377.745 178.633 371.894 179.019 366.379 179.615C362.795 180.111 359.378 181.185 356.337 182.772C355.511 183.063 354.833 183.569 354.415 184.206C353.996 184.843 353.861 185.574 354.031 186.28C354.197 187.048 354.607 187.77 355.221 188.377C355.836 188.984 356.636 189.455 357.545 189.747C360.306 190.692 363.361 190.952 366.309 190.492C371.559 189.605 376.783 188.491 382.036 187.512C385.813 186.799 389.478 185.99 393.386 185.468C400.922 184.696 408.509 184.293 416.108 184.261C417.654 184.112 419.219 184.126 420.761 184.303C424.722 185.034 428.685 185.765 432.545 186.848C435.869 187.793 439.125 188.883 442.299 190.112C444.415 190.855 445.818 190.761 447.064 188.171C448.639 185.011 446.813 182.393 445.445 179.804L442.348 179.788C441.053 179.608 439.725 179.642 438.447 179.885C437.26 180.33 435.907 180.404 434.654 180.094C430.649 179.189 426.665 178.213 422.65 177.343C416.852 176.107 410.95 175.073 405.197 173.679C401.164 172.712 397.277 171.327 393.337 170.118C392.806 170.021 392.385 169.702 391.49 169.332L397.322 168.052C399.961 167.481 402.586 166.797 405.251 166.38C409.651 165.689 414.048 164.608 418.597 165.725C419.095 165.866 419.634 165.883 420.145 165.775C420.655 165.668 421.112 165.439 421.456 165.12C423.116 163.756 424.089 161.956 424.192 160.06C424.493 157.908 423.725 157.099 420.98 156.833C418.71 156.619 416.585 156.709 414.403 156.51C409.37 156.339 404.37 155.776 399.474 154.833C399.059 154.714 398.613 154.676 398.176 154.724C396.583 154.928 394.951 154.792 393.446 154.328C391.941 153.865 390.619 153.091 389.615 152.088C384.524 147.559 380.362 142.423 377.283 136.865C375.327 133.814 373.244 130.796 371.025 127.845C368.808 124.894 366.373 122.201 364.179 119.329C361.97 116.338 359.012 113.74 355.488 111.697C354.576 111.148 353.518 110.773 352.395 110.601C351.272 110.429 350.115 110.466 349.012 110.707C347.261 111.033 346.826 111.565 347.138 112.977C347.704 115.276 348.986 117.425 350.866 119.23C353.339 121.707 355.468 124.401 357.969 126.865C361.434 130.342 365.589 133.372 368.281 137.337C369.044 138.48 369.982 139.506 370.717 140.662L370.245 141.002C369.577 140.726 368.946 140.399 368.361 140.023C366.987 139.034 365.681 137.988 364.445 136.89C361.926 134.571 359.537 132.126 357.055 129.757C354.574 127.389 352.15 125.143 349.742 122.844C345.45 118.843 341.196 114.793 336.911 110.85C336.041 110.059 334.952 109.439 333.731 109.039C333.272 108.856 332.759 108.78 332.249 108.82C331.739 108.859 331.253 109.011 330.847 109.259C330.441 109.508 330.132 109.842 329.954 110.224C329.776 110.606 329.737 111.02 329.84 111.419C329.99 112.604 330.341 113.767 330.885 114.877C333.412 119.677 336.824 124.151 341.008 128.152C345.638 133.046 351.104 137.401 357.25 141.091C360.905 143.193 364.48 145.411 368.066 147.594C368.702 147.971 369.263 148.445 369.992 148.988C366.741 148.777 363.916 148.627 361.121 148.372C360.258 148.353 359.421 148.127 358.72 147.725C354.431 144.596 350.239 141.374 345.954 138.229C343.059 136.08 340.197 133.976 337.088 131.918C336.033 131.273 334.84 130.782 333.568 130.471C333.112 130.337 332.624 130.285 332.14 130.318C331.655 130.351 331.186 130.468 330.764 130.661C330.343 130.854 329.98 131.119 329.702 131.436C329.423 131.753 329.236 132.114 329.153 132.496C328.873 133.294 328.856 134.136 329.102 134.942C329.349 135.748 329.852 136.489 330.563 137.096C332.962 138.949 335.274 140.859 337.608 142.774C338.401 143.497 339.146 144.254 339.84 145.04C337.729 144.938 335.684 144.42 333.888 143.534C329.695 141.285 324.673 140.222 319.63 140.515C318.128 139.106 316.568 137.576 314.97 136.094C311.942 133.538 309.282 130.72 307.04 127.694C305.815 125.817 304.321 124.057 302.938 122.243C300.957 119.596 298.72 117.032 297.034 114.254C295.572 111.851 293.378 109.776 290.653 108.217C290.159 107.858 289.541 107.625 288.879 107.546C288.217 107.467 287.54 107.545 286.935 107.772C285.609 108.395 284.565 109.335 283.953 110.459C283.34 111.581 283.19 112.83 283.524 114.025C284.461 115.84 285.59 117.587 286.9 119.249C288.6 121.417 290.368 123.357 292.285 125.417C291.426 125.105 290.668 124.642 290.068 124.063C285.782 119.561 281.493 115.153 277.192 110.706C273.916 107.3 270.631 103.931 267.229 100.558C266.375 99.7641 265.306 99.136 264.102 98.7189C263.706 98.5527 263.261 98.472 262.812 98.485C262.365 98.4981 261.928 98.6048 261.547 98.793C261.167 98.982 260.855 99.2468 260.644 99.5613C260.432 99.8757 260.326 100.229 260.339 100.585C260.267 101.148 260.338 101.717 260.551 102.257C261.168 104.018 261.918 105.748 262.796 107.438C266.148 113.199 270.582 118.519 275.945 123.219C281.605 128.289 288.121 132.738 294.313 137.422C296.218 138.887 298.349 140.3 300.358 141.728C298.163 141.167 296.027 140.469 293.969 139.64C292.514 139.113 290.93 138.783 289.545 138.176C284.292 135.871 279.097 133.447 273.844 131.143C270.707 130.079 267.984 128.367 265.96 126.182C265.384 125.576 264.735 125.016 264.023 124.508C262.689 123.497 261.447 122.412 260.305 121.262C259.533 120.256 258.865 119.203 258.307 118.111C257.408 116.91 256.594 115.67 255.869 114.397C253.636 109.811 251.554 105.197 249.354 100.581C249.176 100.269 248.976 99.9662 248.756 99.6729C247.22 96.9412 245.393 94.2478 244.169 91.4069C242.767 87.7008 240.552 84.2204 237.626 81.1286C236.158 79.7632 235.053 78.1126 233.672 76.6893C232.73 75.6807 231.619 74.7715 230.59 73.8208C229.7 73.0704 228.55 72.5455 227.286 72.3123C226.022 72.0793 224.699 72.1481 223.484 72.5102C222.402 72.7003 221.784 73.1429 222.152 74.1198C222.286 74.5939 222.23 75.0893 221.995 75.5373C221.425 76.7504 221.478 78.0922 222.141 79.2744C222.546 80.1282 222.95 80.982 223.453 81.8171C225.545 85.8376 228.213 89.6537 231.403 93.1887C236.713 98.2708 241.194 103.865 244.741 109.84C244.577 109.921 244.392 109.998 244.223 110.097C241.989 107.681 239.672 105.307 237.498 102.846C234.865 99.8749 232.406 96.7872 229.778 93.7981C227.665 91.3678 225.487 89.0003 223.264 86.6238C219.219 81.8562 214.696 77.3558 209.74 73.1657C208.16 71.947 206.624 70.7362 204.934 69.5712C204.172 69.084 203.237 68.7971 202.261 68.7499C201.285 68.7027 200.314 68.8976 199.483 69.3078C198.744 69.8218 198.199 70.4883 197.908 71.2334C197.616 71.9785 197.591 72.7732 197.831 73.5299C198.501 75.3475 199.44 77.0959 200.628 78.7383C204.049 82.7548 208.057 86.4332 212.571 89.6969C217.615 93.5952 222.769 97.4398 227.815 101.413C231.61 104.395 235.248 107.44 238.761 110.592C243.651 114.721 248.872 118.597 254.388 122.193C255.053 122.704 255.673 123.253 256.242 123.834C255.799 123.741 255.367 123.618 254.95 123.465C249.002 119.864 242.242 117.69 235.752 114.99C231.842 113.36 227.92 111.691 224.187 109.852C219.245 107.137 214.901 103.791 211.33 99.9491C208.474 97.1041 205.515 94.295 202.724 91.3874C199.853 88.6174 197.376 85.6038 195.338 82.4004C193.495 79.2035 191.345 76.0987 189.49 72.9368C189.107 72.2665 188.528 71.6783 187.801 71.2215C187.074 70.7647 186.22 70.4527 185.311 70.3113C184.81 70.1751 184.266 70.1822 183.771 70.3314C183.275 70.4806 182.861 70.7625 182.6 71.1284C181.605 72.1336 180.972 73.3344 180.766 74.6029C180.56 75.8714 180.791 77.1602 181.432 78.3334C182.948 81.1881 184.65 83.9785 186.529 86.6931C187.813 88.2532 189.216 89.7506 190.726 91.1772C191.832 92.4204 192.907 93.6946 194.004 94.9729C194.224 95.267 194.424 95.57 194.602 95.8813C193.778 95.7802 192.997 95.522 192.326 95.1268C188.03 92.6648 183.85 90.039 179.431 87.7587C175.684 85.8058 172.14 83.4831 167.544 82.7654C166.779 82.6065 166.068 82.3173 165.458 81.9165C163.79 80.9877 162.446 79.7371 161.55 78.2837C159.566 75.3158 158.137 72.1335 157.307 68.8377C156.946 67.1944 156.953 65.4891 156.768 63.804C156.354 61.5074 156.544 59.1672 157.326 56.9319C157.499 56.3861 157.608 55.8283 157.649 55.2663C158.127 52.4236 158.545 49.5512 159.118 46.7073C160.049 42.0745 161.798 37.5182 161.988 32.7859C162.01 32.0193 161.912 31.2536 161.698 30.506C161.385 29.3355 160.974 28.1839 160.537 27.0457C160.172 25.9662 159.699 24.9114 159.124 23.8913C158.961 23.6 158.715 23.3428 158.406 23.1398C158.098 22.9369 157.733 22.7938 157.343 22.7218C156.952 22.6497 156.546 22.6508 156.156 22.7248C155.766 22.7988 155.403 22.9438 155.095 23.1483C153.085 23.9861 151.386 25.2287 150.168 26.7521C148.951 28.2755 148.256 30.0264 148.156 31.8298C148.018 33.6596 148.036 35.5179 147.788 37.3273C146.826 44.4622 146.831 51.6588 147.803 58.7929C148.031 60.4116 148.396 62.0373 148.718 63.6548C148.001 63.2297 147.403 62.6898 146.964 62.0699C143.471 57.1247 140.664 51.8922 138.592 46.4646C137.432 43.31 135.993 40.2242 134.288 37.2302C131.906 33.6374 129.382 30.0554 127.27 26.4196C126.035 24.7151 124.305 23.2703 122.224 22.2054C122.005 22.0494 121.742 21.9371 121.457 21.8777C121.171 21.8182 120.873 21.8133 120.585 21.8634C120.297 21.9135 120.029 22.0173 119.801 22.1659C119.573 22.3147 119.394 22.5042 119.276 22.719C117.34 25.7567 115.505 28.8501 117.301 32.3719C117.788 33.3519 118.388 34.2946 119.091 35.188C121.741 38.4221 124.559 41.5574 127.071 44.859C128.634 47.0983 130.024 49.4114 131.233 51.7854C135.079 57.961 139.886 63.7275 145.541 68.9493C146.73 70.1518 147.875 71.3461 149.146 72.5825C146.79 71.9442 144.573 71.0158 142.578 69.8313C138.38 67.2494 134.815 64.0767 132.059 60.4709C130.414 58.3906 128.993 56.2046 127.806 53.9359C126.908 52.1378 125.27 50.5557 124.141 48.8265C122.381 46.1458 120.849 43.3962 119.111 40.7197C116.677 36.9874 114.298 33.228 111.607 29.5781C108.539 25.302 105.219 21.1654 101.928 17.0151C100.114 14.6771 97.9163 12.4539 96.0733 10.0548C93.8841 7.16003 91.0718 4.59421 87.7642 2.47484C86.2899 1.57533 84.686 0.818719 82.9866 0.220891C82.2764 -0.00942503 81.4947 -0.0611584 80.7466 0.07286C79.9984 0.206878 79.3199 0.520131 78.8026 0.970335ZM376.566 161.961C373.562 159.7 370.505 157.467 367.507 155.189C367.172 154.818 366.913 154.407 366.742 153.972C367.979 154.052 368.905 154.074 369.833 154.171C370.878 154.317 371.913 154.508 372.932 154.743L396.297 159.887C395.906 160.036 395.497 160.153 395.076 160.236C389.857 161.017 384.652 161.746 379.467 162.57C378.959 162.68 378.423 162.682 377.913 162.575C377.404 162.468 376.938 162.256 376.566 161.961Z" fill="#F7C334"/>
</svg>
